<svg width="1080" height="1080" viewBox="0 0 1080 1080" fill="none" xmlns="http://www.w3.org/2000/svg">
<path d="M579.934 860.127C579.934 786.627 639.434 727.127 712.934 727.127C786.434 727.127 845.934 786.627 845.934 860.127" fill="#FF7F41"/>
<path d="M198.533 860.127C198.533 738.527 297.133 639.827 418.833 639.827C540.533 639.827 639.133 738.427 639.133 860.127" fill="#FF7F41"/>
<path d="M395.133 924.727C393.633 924.727 392.133 924.527 390.533 924.227C379.433 921.727 372.533 910.727 375.033 899.627L436.733 628.527C439.233 617.427 450.233 610.527 461.333 613.027C472.433 615.527 479.333 626.527 476.833 637.627L415.133 908.727C412.933 918.327 404.433 924.727 395.133 924.727Z" fill="#F5B6CD"/>
<path d="M630.833 586.627C571.233 586.627 511.933 568.227 462.833 534.427C411.333 499.027 371.633 446.927 351.033 387.827C347.333 377.127 352.933 365.427 363.733 361.627C374.433 357.927 386.133 363.527 389.933 374.327C407.633 425.227 441.833 470.027 486.233 500.527C530.633 531.027 584.733 547.027 638.533 545.327C649.933 545.027 659.333 553.927 659.733 565.227C660.033 576.527 651.133 586.027 639.833 586.427C636.733 586.627 633.733 586.627 630.833 586.627Z" fill="#00C389"/>
<path d="M474.697 268.432C496.313 245.85 493.88 208.442 469.264 184.878C444.647 161.315 407.169 160.519 385.553 183.1C363.937 205.682 366.37 243.09 390.986 266.654C415.603 290.217 453.081 291.013 474.697 268.432Z" fill="#E4AC7B"/>
<path d="M862.533 214.128C854.233 214.128 847.533 207.428 847.533 199.128V178.928C847.533 178.528 847.533 178.228 847.533 177.828C847.533 177.328 847.533 176.828 847.533 176.328C847.533 175.728 847.533 175.028 847.433 174.428C847.433 174.028 847.334 173.528 847.334 173.128C847.234 172.428 847.234 171.728 847.134 171.028C846.234 162.428 843.533 153.928 839.433 146.428C835.333 138.828 829.534 132.028 822.834 126.628C816.134 121.228 808.233 117.028 799.933 114.628C792.033 112.328 787.433 104.028 789.733 96.1278C792.033 88.2278 800.333 83.6278 808.233 85.9278C820.233 89.4278 831.733 95.4278 841.533 103.328C851.233 111.128 859.634 121.128 865.634 132.028C871.634 143.028 875.534 155.428 876.834 167.928C876.934 168.928 877.034 170.028 877.134 171.028C877.134 171.428 877.233 171.828 877.233 172.228V172.428C877.333 173.628 877.334 174.728 877.334 175.728C877.334 176.128 877.334 176.528 877.334 176.928C877.334 177.728 877.334 178.428 877.334 179.028V199.228C877.534 207.428 870.833 214.128 862.533 214.128Z" fill="#F5B6CD"/>
<path d="M845.933 171.027C841.233 171.027 836.933 167.927 835.633 163.227C834.433 158.827 832.733 154.727 830.633 151.027C828.433 147.127 825.833 143.527 822.933 140.227C819.933 137.027 816.533 134.027 812.933 131.527C809.333 129.127 805.433 127.027 801.233 125.427C793.033 122.327 784.033 121.227 775.133 122.227C770.733 122.727 766.433 123.727 762.233 125.227C758.233 126.727 754.233 128.727 750.433 131.227C745.533 134.427 738.833 133.127 735.633 128.127C732.433 123.227 733.733 116.527 738.733 113.327C743.933 109.927 749.433 107.127 755.033 105.127C760.833 103.027 766.733 101.727 772.833 101.027C785.033 99.6271 797.433 101.227 808.833 105.527C814.633 107.727 820.033 110.527 825.033 113.927C830.033 117.427 834.733 121.427 838.833 125.827C842.933 130.327 846.533 135.327 849.433 140.627C852.333 145.827 854.633 151.527 856.333 157.527C857.933 163.227 854.533 169.127 848.933 170.627C847.933 170.927 846.933 171.027 845.933 171.027Z" fill="#FDDA24"/>
<path d="M753.334 328.227C748.034 328.227 742.834 325.327 740.134 320.327L699.634 244.527V206.127C699.634 197.827 706.334 191.127 714.634 191.127C722.934 191.127 729.634 197.827 729.634 206.127V237.027L766.634 306.227C770.534 313.527 767.734 322.527 760.534 326.427C758.134 327.727 755.734 328.227 753.334 328.227Z" fill="#F5B6CD"/>
<path d="M706.734 159.327C705.034 159.327 703.334 159.027 701.734 158.327C695.234 155.527 692.234 148.027 694.934 141.527C701.334 126.527 711.434 113.427 724.134 103.727C730.234 99.0274 737.234 94.9274 744.934 91.6274L745.134 91.5274C752.834 88.3274 760.734 86.2274 768.434 85.1274C775.434 84.1274 781.934 89.1274 782.834 96.1274C783.734 103.127 778.834 109.627 771.834 110.527C766.334 111.227 760.734 112.827 755.034 115.127C749.334 117.527 744.334 120.527 739.934 123.927L739.834 124.027C730.634 131.127 723.234 140.627 718.534 151.527C716.434 156.427 711.634 159.327 706.734 159.327Z" fill="#9063CD"/>
<path d="M705.634 269.128C700.334 269.128 695.134 266.228 692.434 261.228L685.434 248.128V181.728C685.434 173.428 692.134 166.728 700.434 166.728C708.734 166.728 715.434 173.428 715.434 181.728V240.628L718.934 247.128C722.834 254.428 720.134 263.428 712.834 267.328C710.434 268.628 707.934 269.128 705.634 269.128Z" fill="#FF7F41"/>
<path d="M774.634 393.927C770.834 393.927 767.134 391.927 765.234 388.327L713.934 292.427C711.134 287.227 713.134 280.727 718.334 277.927C723.534 275.127 730.034 277.127 732.834 282.327L784.134 378.227C786.934 383.427 784.934 389.927 779.734 392.727C778.034 393.527 776.334 393.927 774.634 393.927Z" fill="#59CBE8"/>
<path d="M811.134 436.328C805.834 436.328 800.634 433.428 797.934 428.428L762.534 362.228C758.634 354.928 761.434 345.928 768.634 342.028C775.934 338.128 784.934 340.928 788.834 348.128L824.234 414.328C828.134 421.628 825.334 430.628 818.134 434.528C815.934 435.728 813.534 436.328 811.134 436.328Z" fill="#00C389"/>
<path d="M776.834 467.828C707.834 467.828 651.834 411.828 651.834 342.828V267.228C651.834 250.628 665.234 237.228 681.834 237.228H871.734C888.334 237.228 901.734 250.628 901.734 267.228V342.828C901.834 411.828 845.934 467.828 776.834 467.828Z" fill="#00C389"/>
<path d="M751.534 406.727C748.434 406.727 745.434 405.527 743.234 403.327L710.934 370.927C706.334 366.327 706.334 358.927 710.934 354.327C715.534 349.727 722.934 349.727 727.534 354.327L751.534 378.327L844.034 285.827C848.634 281.227 856.034 281.227 860.634 285.827C865.234 290.427 865.234 297.827 860.634 302.427L759.834 403.227C757.634 405.427 754.634 406.727 751.534 406.727Z" fill="white"/>
<path d="M399.333 996.628C397.833 996.628 396.333 996.428 394.733 996.128C383.633 993.628 376.733 982.628 379.233 971.528L440.933 700.428C443.433 689.328 454.433 682.428 465.533 684.928C476.633 687.428 483.533 698.428 481.033 709.528L419.333 980.628C417.233 990.128 408.733 996.628 399.333 996.628Z" fill="#00C389"/>
<path d="M198.534 992.828C192.934 992.828 187.234 990.528 183.234 985.928C175.634 977.428 176.434 964.428 184.834 956.928C244.434 903.628 280.634 841.028 300.534 797.928C322.234 750.828 329.834 715.928 329.934 715.628C332.334 704.528 343.234 697.428 354.334 699.828C365.434 702.128 372.534 713.028 370.234 724.128C369.934 725.728 361.934 762.928 338.534 814.028C317.034 861.028 277.634 929.228 212.334 987.628C208.234 991.128 203.334 992.828 198.534 992.828Z" fill="#59CBE8"/>
<path d="M599.633 556.928C599.033 556.928 598.433 556.928 597.833 556.828C525.433 547.228 496.133 522.328 486.533 514.128C486.233 513.828 485.833 513.528 485.433 513.228C480.533 510.528 477.633 504.828 478.733 498.928C480.133 491.628 487.133 486.728 494.433 488.128C498.533 488.928 501.033 491.028 503.933 493.528C512.033 500.428 536.833 521.428 601.333 530.028C608.733 531.028 613.933 537.828 612.933 545.228C612.033 551.928 606.233 556.828 599.633 556.928Z" fill="#FDDA24"/>
<path d="M478.933 749.927L530.533 519.527L524.733 519.627C399.233 520.927 299.533 611.427 273.233 748.127L478.933 749.927Z" fill="#2C2A29"/>
<path d="M692.634 375.527L674.234 376.627C669.834 376.927 666.134 373.527 665.834 369.127L663.134 323.427C662.834 319.027 666.234 315.327 670.634 315.027L689.034 313.927C693.434 313.627 697.134 317.027 697.434 321.427L700.134 367.127C700.334 371.527 697.034 375.327 692.634 375.527Z" fill="#F5B6CD"/>
<path d="M525.234 543.827L415.734 545.827L330.134 336.727C330.134 336.627 646.434 179.327 525.234 543.827Z" fill="#9063CD"/>
<path d="M526.533 447.228C475.033 447.228 425.233 434.828 381.633 411.128C371.633 405.728 367.933 393.228 373.433 383.228C378.833 373.228 391.333 369.528 401.333 375.028C484.633 420.328 593.833 415.628 672.933 363.328C682.433 357.028 695.133 359.628 701.433 369.128C707.733 378.628 705.133 391.328 695.633 397.628C650.533 427.428 596.933 444.528 540.533 446.928C535.833 447.128 531.133 447.228 526.533 447.228Z" fill="#FF7F41"/>
<path d="M527.834 423.727C478.034 423.727 441.834 410.827 439.534 410.027C432.534 407.427 428.934 399.727 431.434 392.727C434.034 385.727 441.734 382.127 448.734 384.627C449.834 385.027 527.034 412.127 606.934 383.427C613.934 380.927 621.634 384.527 624.234 391.527C626.734 398.527 623.134 406.227 616.134 408.827C584.934 420.027 554.434 423.727 527.834 423.727Z" fill="#FDDA24"/>
</svg>
