<svg width="375" height="177" viewBox="0 0 375 177" fill="none" xmlns="http://www.w3.org/2000/svg">
<path d="M351.887 35.3674L353.485 33.3088L355.172 31.3245C355.723 30.653 356.318 30.0229 356.91 29.3889L357.797 28.4376C358.089 28.1177 358.388 27.803 358.702 27.5041L360.556 25.6811C361.177 25.0767 361.837 24.5152 362.476 23.9299L363.443 23.0615L364.444 22.2333C365.116 21.6875 365.774 21.1246 366.458 20.5934C369.197 18.4682 372.078 16.534 375.06 14.7623C378.07 13.0355 381.196 11.5074 384.421 10.1967C387.665 8.92801 391.013 7.90757 394.434 7.16297C397.861 6.43022 401.375 6.06155 404.902 6.00822C408.432 5.93646 411.985 6.3374 415.452 7.09911C417.199 7.43948 418.893 8.005 420.589 8.5409L423.079 9.51329C423.498 9.66471 423.899 9.85958 424.299 10.0558L425.502 10.6364" stroke="#9063CD" stroke-width="12" stroke-linecap="round"/>
<path d="M316.676 97.9414L351.057 51.789L359.648 40.277C362.403 36.6442 365.566 33.2965 369.028 30.2766C375.955 24.2409 384.063 19.4869 392.721 16.3867" stroke="#FDDA24" stroke-width="25" stroke-linecap="round"/>
<path d="M-50 114.714C-29.9698 84.9426 14.2959 70.1665 48.0774 82.4283C62.9925 87.842 76.0451 97.3321 88.1306 107.423" stroke="#FF7F41" stroke-width="25" stroke-linecap="round"/>
<path d="M18.1758 72.2834C24.5981 71.5415 31.0955 71.6435 37.456 72.6212L38.6494 72.7956C39.0475 72.8542 39.4402 72.9424 39.8356 73.0148L42.2047 73.4724L44.5501 74.0333L45.7218 74.3197L46.881 74.6548C49.9869 75.4942 53.0066 76.6279 55.981 77.8537C57.4507 78.5108 58.9316 79.1441 60.3579 79.8973C61.8112 80.5951 63.204 81.4108 64.6079 82.2041C65.3119 82.5965 65.9796 83.0541 66.6671 83.4767C67.3481 83.9099 68.0395 84.3267 68.6921 84.8046L70.675 86.1977C71.3231 86.6612 71.923 87.1174 72.5494 87.5769L87.4309 98.5951L117.193 120.631L132.075 131.649L135.795 134.403C137.033 135.31 138.281 136.271 139.506 137.107L143.192 139.695L147.002 142.092" stroke="#FDDA24" stroke-width="14.981" stroke-linecap="round"/>
<path d="M247.656 150.729C250.097 149.854 252.438 148.737 254.817 147.713C255.986 147.158 257.137 146.563 258.299 145.991L260.038 145.124L261.732 144.174C262.858 143.536 263.999 142.921 265.114 142.264L268.407 140.202C269.52 139.538 270.569 138.778 271.633 138.04L273.226 136.93C273.758 136.561 274.294 136.198 274.798 135.791L277.872 133.417L278.641 132.824L279.38 132.195L280.856 130.933L282.332 129.672C282.577 129.46 282.828 129.256 283.067 129.038L283.773 128.371L286.595 125.705C290.248 122.042 293.777 118.238 296.905 114.111C298.504 112.114 300.084 109.935 301.669 107.805L306.42 101.396L315.924 88.5796L334.932 62.9453" stroke="#FF7F41" stroke-width="15" stroke-linecap="round"/>
<path d="M113.746 126.844L130.728 139.516L132.851 141.1L135.063 142.673C136.549 143.71 138 144.801 139.553 145.738L141.848 147.194L142.997 147.921C143.376 148.168 143.781 148.374 144.172 148.602C145.753 149.485 147.316 150.404 148.913 151.255C161.729 158.021 175.774 162.363 190.112 164.081" stroke="#9063CD" stroke-width="25" stroke-linecap="round"/>
</svg>
